  0
SECTION
  2
BLOCKS
  0
ENDSEC
  0
SECTION
  2
ENTITIES
  0
LINE
  8
0
 10
-8.32998
 20
-0.357038
 11
-8.32626
 21
-0.484949
  0
LINE
  8
0
 10
-8.32626
 20
-0.484949
 11
-8.3151
 21
-0.612419
  0
LINE
  8
0
 10
-8.3151
 20
-0.612419
 11
-8.26213
 21
-0.71076
  0
LINE
  8
0
 10
-8.26213
 20
-0.71076
 11
-8.16045
 21
-0.750052
  0
LINE
  8
0
 10
-8.16045
 20
-0.750052
 11
-8.05032
 21
-0.753313
  0
LINE
  8
0
 10
-8.05032
 20
-0.753313
 11
-7.9411
 21
-0.770105
  0
LINE
  8
0
 10
-7.9411
 20
-0.770105
 11
-7.83357
 21
-0.800073
  0
LINE
  8
0
 10
-7.83357
 20
-0.800073
 11
-7.72855
 21
-0.842851
  0
LINE
  8
0
 10
-7.72855
 20
-0.842851
 11
-7.61448
 21
-0.930203
  0
LINE
  8
0
 10
-7.61448
 20
-0.930203
 11
-7.52357
 21
-1.04061
  0
LINE
  8
0
 10
-7.52357
 20
-1.04061
 11
-7.45761
 21
-1.16846
  0
LINE
  8
0
 10
-7.45761
 20
-1.16846
 11
-7.41834
 21
-1.30805
  0
LINE
  8
0
 10
-7.41834
 20
-1.30805
 11
-7.4075
 21
-1.45266
  0
LINE
  8
0
 10
-7.4075
 20
-1.45266
 11
-7.42575
 21
-1.59536
  0
LINE
  8
0
 10
-7.42575
 20
-1.59536
 11
-7.47342
 21
-1.7302
  0
LINE
  8
0
 10
-7.47342
 20
-1.7302
 11
-7.55074
 21
-1.8513
  0
LINE
  8
0
 10
-7.55074
 20
-1.8513
 11
-7.63482
 21
-1.92725
  0
LINE
  8
0
 10
-7.63482
 20
-1.92725
 11
-7.72561
 21
-1.9922
  0
LINE
  8
0
 10
-7.72561
 20
-1.9922
 11
-7.82248
 21
-2.04544
  0
LINE
  8
0
 10
-7.82248
 20
-2.04544
 11
-7.92485
 21
-2.08622
  0
LINE
  8
0
 10
-7.92485
 20
-2.08622
 11
-8.00698
 21
-2.15778
  0
LINE
  8
0
 10
-8.00698
 20
-2.15778
 11
-8.0231
 21
-2.26844
  0
LINE
  8
0
 10
-8.0231
 20
-2.26844
 11
-7.98998
 21
-2.39204
  0
LINE
  8
0
 10
-7.98998
 20
-2.39204
 11
-7.94974
 21
-2.51351
  0
LINE
  8
0
 10
-7.94974
 20
-2.51351
 11
-7.87551
 21
-2.59698
  0
LINE
  8
0
 10
-7.87551
 20
-2.59698
 11
-7.76751
 21
-2.61176
  0
LINE
  8
0
 10
-7.76751
 20
-2.61176
 11
-7.6596
 21
-2.58954
  0
LINE
  8
0
 10
-7.6596
 20
-2.58954
 11
-7.54945
 21
-2.58069
  0
LINE
  8
0
 10
-7.54945
 20
-2.58069
 11
-7.4379
 21
-2.58505
  0
LINE
  8
0
 10
-7.4379
 20
-2.58505
 11
-7.32585
 21
-2.60246
  0
LINE
  8
0
 10
-7.32585
 20
-2.60246
 11
-7.19471
 21
-2.66115
  0
LINE
  8
0
 10
-7.19471
 20
-2.66115
 11
-7.08079
 21
-2.74762
  0
LINE
  8
0
 10
-7.08079
 20
-2.74762
 11
-6.98713
 21
-2.85681
  0
LINE
  8
0
 10
-6.98713
 20
-2.85681
 11
-6.91672
 21
-2.98358
  0
LINE
  8
0
 10
-6.91672
 20
-2.98358
 11
-6.87282
 21
-3.12179
  0
LINE
  8
0
 10
-6.87282
 20
-3.12179
 11
-6.85768
 21
-3.26485
  0
LINE
  8
0
 10
-6.85768
 20
-3.26485
 11
-6.87296
 21
-3.40705
  0
LINE
  8
0
 10
-6.87296
 20
-3.40705
 11
-6.92027
 21
-3.54272
  0
LINE
  8
0
 10
-6.92027
 20
-3.54272
 11
-6.98457
 21
-3.63601
  0
LINE
  8
0
 10
-6.98457
 20
-3.63601
 11
-7.05793
 21
-3.72015
  0
LINE
  8
0
 10
-7.05793
 20
-3.72015
 11
-7.13992
 21
-3.79429
  0
LINE
  8
0
 10
-7.13992
 20
-3.79429
 11
-7.23012
 21
-3.85758
  0
LINE
  8
0
 10
-7.23012
 20
-3.85758
 11
-7.29353
 21
-3.94615
  0
LINE
  8
0
 10
-7.29353
 20
-3.94615
 11
-7.2837
 21
-4.05755
  0
LINE
  8
0
 10
-7.2837
 20
-4.05755
 11
-7.22297
 21
-4.17018
  0
LINE
  8
0
 10
-7.22297
 20
-4.17018
 11
-7.15579
 21
-4.27909
  0
LINE
  8
0
 10
-7.15579
 20
-4.27909
 11
-7.06432
 21
-4.34319
  0
LINE
  8
0
 10
-7.06432
 20
-4.34319
 11
-6.95582
 21
-4.33268
  0
LINE
  8
0
 10
-6.95582
 20
-4.33268
 11
-6.85594
 21
-4.28616
  0
LINE
  8
0
 10
-6.85594
 20
-4.28616
 11
-6.7508
 21
-4.25215
  0
LINE
  8
0
 10
-6.7508
 20
-4.25215
 11
-6.64126
 21
-4.23067
  0
LINE
  8
0
 10
-6.64126
 20
-4.23067
 11
-6.52822
 21
-4.22177
  0
LINE
  8
0
 10
-6.52822
 20
-4.22177
 11
-6.38708
 21
-4.24863
  0
LINE
  8
0
 10
-6.38708
 20
-4.24863
 11
-6.25628
 21
-4.3065
  0
LINE
  8
0
 10
-6.25628
 20
-4.3065
 11
-6.13996
 21
-4.39114
  0
LINE
  8
0
 10
-6.13996
 20
-4.39114
 11
-6.04222
 21
-4.49827
  0
LINE
  8
0
 10
-6.04222
 20
-4.49827
 11
-5.96763
 21
-4.62263
  0
LINE
  8
0
 10
-5.96763
 20
-4.62263
 11
-5.9199
 21
-4.75834
  0
LINE
  8
0
 10
-5.9199
 20
-4.75834
 11
-5.90198
 21
-4.90023
  0
LINE
  8
0
 10
-5.90198
 20
-4.90023
 11
-5.91672
 21
-5.04315
  0
LINE
  8
0
 10
-5.91672
 20
-5.04315
 11
-5.95778
 21
-5.14875
  0
LINE
  8
0
 10
-5.95778
 20
-5.14875
 11
-6.00976
 21
-5.24754
  0
LINE
  8
0
 10
-6.00976
 20
-5.24754
 11
-6.07244
 21
-5.33859
  0
LINE
  8
0
 10
-6.07244
 20
-5.33859
 11
-6.14561
 21
-5.42098
  0
LINE
  8
0
 10
-6.14561
 20
-5.42098
 11
-6.18689
 21
-5.52179
  0
LINE
  8
0
 10
-6.18689
 20
-5.52179
 11
-6.15163
 21
-5.62791
  0
LINE
  8
0
 10
-6.15163
 20
-5.62791
 11
-6.06656
 21
-5.72351
  0
LINE
  8
0
 10
-6.06656
 20
-5.72351
 11
-5.97608
 21
-5.81399
  0
LINE
  8
0
 10
-5.97608
 20
-5.81399
 11
-5.87229
 21
-5.85527
  0
LINE
  8
0
 10
-5.87229
 20
-5.85527
 11
-5.76915
 21
-5.82001
  0
LINE
  8
0
 10
-5.76915
 20
-5.82001
 11
-5.68268
 21
-5.75172
  0
LINE
  8
0
 10
-5.68268
 20
-5.75172
 11
-5.58822
 21
-5.69438
  0
LINE
  8
0
 10
-5.58822
 20
-5.69438
 11
-5.48658
 21
-5.64821
  0
LINE
  8
0
 10
-5.48658
 20
-5.64821
 11
-5.37864
 21
-5.61348
  0
LINE
  8
0
 10
-5.37864
 20
-5.61348
 11
-5.23511
 21
-5.60707
  0
LINE
  8
0
 10
-5.23511
 20
-5.60707
 11
-5.0945
 21
-5.63321
  0
LINE
  8
0
 10
-5.0945
 20
-5.63321
 11
-4.96179
 21
-5.68875
  0
LINE
  8
0
 10
-4.96179
 20
-5.68875
 11
-4.84198
 21
-5.77044
  0
LINE
  8
0
 10
-4.84198
 20
-5.77044
 11
-4.74072
 21
-5.87425
  0
LINE
  8
0
 10
-4.74072
 20
-5.87425
 11
-4.66298
 21
-5.9953
  0
LINE
  8
0
 10
-4.66298
 20
-5.9953
 11
-4.61282
 21
-6.12923
  0
LINE
  8
0
 10
-4.61282
 20
-6.12923
 11
-4.59421
 21
-6.2717
  0
LINE
  8
0
 10
-4.59421
 20
-6.2717
 11
-4.6098
 21
-6.38392
  0
LINE
  8
0
 10
-4.6098
 20
-6.38392
 11
-4.6376
 21
-6.49204
  0
LINE
  8
0
 10
-4.6376
 20
-6.49204
 11
-4.67759
 21
-6.59509
  0
LINE
  8
0
 10
-4.67759
 20
-6.59509
 11
-4.72979
 21
-6.69213
  0
LINE
  8
0
 10
-4.72979
 20
-6.69213
 11
-4.74671
 21
-6.79974
  0
LINE
  8
0
 10
-4.74671
 20
-6.79974
 11
-4.68793
 21
-6.89488
  0
LINE
  8
0
 10
-4.68793
 20
-6.89488
 11
-4.58311
 21
-6.96827
  0
LINE
  8
0
 10
-4.58311
 20
-6.96827
 11
-4.4742
 21
-7.03545
  0
LINE
  8
0
 10
-4.4742
 20
-7.03545
 11
-4.36368
 21
-7.05168
  0
LINE
  8
0
 10
-4.36368
 20
-7.05168
 11
-4.27145
 21
-6.99359
  0
LINE
  8
0
 10
-4.27145
 20
-6.99359
 11
-4.20307
 21
-6.9072
  0
LINE
  8
0
 10
-4.20307
 20
-6.9072
 11
-4.12438
 21
-6.82961
  0
LINE
  8
0
 10
-4.12438
 20
-6.82961
 11
-4.03613
 21
-6.76126
  0
LINE
  8
0
 10
-4.03613
 20
-6.76126
 11
-3.9391
 21
-6.70257
  0
LINE
  8
0
 10
-3.9391
 20
-6.70257
 11
-3.80092
 21
-6.66323
  0
LINE
  8
0
 10
-3.80092
 20
-6.66323
 11
-3.65806
 21
-6.65624
  0
LINE
  8
0
 10
-3.65806
 20
-6.65624
 11
-3.51613
 21
-6.67968
  0
LINE
  8
0
 10
-3.51613
 20
-6.67968
 11
-3.38071
 21
-6.73154
  0
LINE
  8
0
 10
-3.38071
 20
-6.73154
 11
-3.25824
 21
-6.8092
  0
LINE
  8
0
 10
-3.25824
 20
-6.8092
 11
-3.15468
 21
-6.90905
  0
LINE
  8
0
 10
-3.15468
 20
-6.90905
 11
-3.07498
 21
-7.02781
  0
LINE
  8
0
 10
-3.07498
 20
-7.02781
 11
-3.02402
 21
-7.16214
  0
LINE
  8
0
 10
-3.02402
 20
-7.16214
 11
-3.01331
 21
-7.27494
  0
LINE
  8
0
 10
-3.01331
 20
-7.27494
 11
-3.01542
 21
-7.38655
  0
LINE
  8
0
 10
-3.01542
 20
-7.38655
 11
-3.03057
 21
-7.49605
  0
LINE
  8
0
 10
-3.03057
 20
-7.49605
 11
-3.05899
 21
-7.60251
  0
LINE
  8
0
 10
-3.05899
 20
-7.60251
 11
-3.05063
 21
-7.71112
  0
LINE
  8
0
 10
-3.05063
 20
-7.71112
 11
-2.9715
 21
-7.79014
  0
LINE
  8
0
 10
-2.9715
 20
-7.79014
 11
-2.85257
 21
-7.83738
  0
LINE
  8
0
 10
-2.85257
 20
-7.83738
 11
-2.73111
 21
-7.87763
  0
LINE
  8
0
 10
-2.73111
 20
-7.87763
 11
-2.61983
 21
-7.86794
  0
LINE
  8
0
 10
-2.61983
 20
-7.86794
 11
-2.54348
 21
-7.79014
  0
LINE
  8
0
 10
-2.54348
 20
-7.79014
 11
-2.49686
 21
-7.6903
  0
LINE
  8
0
 10
-2.49686
 20
-7.6903
 11
-2.43818
 21
-7.59667
  0
LINE
  8
0
 10
-2.43818
 20
-7.59667
 11
-2.36808
 21
-7.5098
  0
LINE
  8
0
 10
-2.36808
 20
-7.5098
 11
-2.2872
 21
-7.43032
  0
LINE
  8
0
 10
-2.2872
 20
-7.43032
 11
-2.16181
 21
-7.36018
  0
LINE
  8
0
 10
-2.16181
 20
-7.36018
 11
-2.02443
 21
-7.32043
  0
LINE
  8
0
 10
-2.02443
 20
-7.32043
 11
-1.88091
 21
-7.3105
  0
LINE
  8
0
 10
-1.88091
 20
-7.3105
 11
-1.73718
 21
-7.32973
  0
LINE
  8
0
 10
-1.73718
 20
-7.32973
 11
-1.6001
 21
-7.37706
  0
LINE
  8
0
 10
-1.6001
 20
-7.37706
 11
-1.47631
 21
-7.45034
  0
LINE
  8
0
 10
-1.47631
 20
-7.45034
 11
-1.37137
 21
-7.54751
  0
LINE
  8
0
 10
-1.37137
 20
-7.54751
 11
-1.2908
 21
-7.66647
  0
LINE
  8
0
 10
-1.2908
 20
-7.66647
 11
-1.25437
 21
-7.77376
  0
LINE
  8
0
 10
-1.25437
 20
-7.77376
 11
-1.23069
 21
-7.88285
  0
LINE
  8
0
 10
-1.23069
 20
-7.88285
 11
-1.22017
 21
-7.99289
  0
LINE
  8
0
 10
-1.22017
 20
-7.99289
 11
-1.22327
 21
-8.10304
  0
LINE
  8
0
 10
-1.22327
 20
-8.10304
 11
-1.19009
 21
-8.20679
  0
LINE
  8
0
 10
-1.19009
 20
-8.20679
 11
-1.09487
 21
-8.26543
  0
LINE
  8
0
 10
-1.09487
 20
-8.26543
 11
-0.968257
 21
-8.28397
  0
LINE
  8
0
 10
-0.968257
 20
-8.28397
 11
-0.840786
 21
-8.29512
  0
LINE
  8
0
 10
-0.840786
 20
-8.29512
 11
-0.734741
 21
-8.26003
  0
LINE
  8
0
 10
-0.734741
 20
-8.26003
 11
-0.67839
 21
-8.16672
  0
LINE
  8
0
 10
-0.67839
 20
-8.16672
 11
-0.656054
 21
-8.05883
  0
LINE
  8
0
 10
-0.656054
 20
-8.05883
 11
-0.620551
 21
-7.95418
  0
LINE
  8
0
 10
-0.620551
 20
-7.95418
 11
-0.572367
 21
-7.85349
  0
LINE
  8
0
 10
-0.572367
 20
-7.85349
 11
-0.512002
 21
-7.7575
  0
LINE
  8
0
 10
-0.512002
 20
-7.7575
 11
-0.406169
 21
-7.66033
  0
LINE
  8
0
 10
-0.406169
 20
-7.66033
 11
-0.281651
 21
-7.58997
  0
LINE
  8
0
 10
-0.281651
 20
-7.58997
 11
-0.144294
 21
-7.54722
  0
LINE
  8
0
 10
-0.144294
 20
-7.54722
 11
0
 21
-7.53278
  0
LINE
  8
0
 10
0
 20
-7.53278
 11
0.144294
 21
-7.54722
  0
LINE
  8
0
 10
0.144294
 20
-7.54722
 11
0.281651
 21
-7.58997
  0
LINE
  8
0
 10
0.281651
 20
-7.58997
 11
0.406169
 21
-7.66033
  0
LINE
  8
0
 10
0.406169
 20
-7.66033
 11
0.512002
 21
-7.7575
  0
LINE
  8
0
 10
0.512002
 20
-7.7575
 11
0.572193
 21
-7.85349
  0
LINE
  8
0
 10
0.572193
 20
-7.85349
 11
0.620396
 21
-7.95418
  0
LINE
  8
0
 10
0.620396
 20
-7.95418
 11
0.656002
 21
-8.05883
  0
LINE
  8
0
 10
0.656002
 20
-8.05883
 11
0.67839
 21
-8.16672
  0
LINE
  8
0
 10
0.67839
 20
-8.16672
 11
0.734602
 21
-8.26003
  0
LINE
  8
0
 10
0.734602
 20
-8.26003
 11
0.840779
 21
-8.29512
  0
LINE
  8
0
 10
0.840779
 20
-8.29512
 11
0.968257
 21
-8.28397
  0
LINE
  8
0
 10
0.968257
 20
-8.28397
 11
1.09486
 21
-8.26543
  0
LINE
  8
0
 10
1.09486
 20
-8.26543
 11
1.18996
 21
-8.20682
  0
LINE
  8
0
 10
1.18996
 20
-8.20682
 11
1.22327
 21
-8.10304
  0
LINE
  8
0
 10
1.22327
 20
-8.10304
 11
1.22012
 21
-7.9929
  0
LINE
  8
0
 10
1.22012
 20
-7.9929
 11
1.23054
 21
-7.88289
  0
LINE
  8
0
 10
1.23054
 20
-7.88289
 11
1.2542
 21
-7.7738
  0
LINE
  8
0
 10
1.2542
 20
-7.7738
 11
1.2908
 21
-7.66647
  0
LINE
  8
0
 10
1.2908
 20
-7.66647
 11
1.37137
 21
-7.54751
  0
LINE
  8
0
 10
1.37137
 20
-7.54751
 11
1.47631
 21
-7.45034
  0
LINE
  8
0
 10
1.47631
 20
-7.45034
 11
1.6001
 21
-7.37706
  0
LINE
  8
0
 10
1.6001
 20
-7.37706
 11
1.73718
 21
-7.32973
  0
LINE
  8
0
 10
1.73718
 20
-7.32973
 11
1.88091
 21
-7.3105
  0
LINE
  8
0
 10
1.88091
 20
-7.3105
 11
2.02443
 21
-7.32043
  0
LINE
  8
0
 10
2.02443
 20
-7.32043
 11
2.16181
 21
-7.36018
  0
LINE
  8
0
 10
2.16181
 20
-7.36018
 11
2.2872
 21
-7.43032
  0
LINE
  8
0
 10
2.2872
 20
-7.43032
 11
2.36791
 21
-7.50984
  0
LINE
  8
0
 10
2.36791
 20
-7.50984
 11
2.43803
 21
-7.5967
  0
LINE
  8
0
 10
2.43803
 20
-7.5967
 11
2.49681
 21
-7.69032
  0
LINE
  8
0
 10
2.49681
 20
-7.69032
 11
2.54348
 21
-7.79014
  0
LINE
  8
0
 10
2.54348
 20
-7.79014
 11
2.6197
 21
-7.86797
  0
LINE
  8
0
 10
2.6197
 20
-7.86797
 11
2.7311
 21
-7.87763
  0
LINE
  8
0
 10
2.7311
 20
-7.87763
 11
2.85257
 21
-7.83738
  0
LINE
  8
0
 10
2.85257
 20
-7.83738
 11
2.97149
 21
-7.79014
  0
LINE
  8
0
 10
2.97149
 20
-7.79014
 11
3.05051
 21
-7.71118
  0
LINE
  8
0
 10
3.05051
 20
-7.71118
 11
3.05899
 21
-7.60251
  0
LINE
  8
0
 10
3.05899
 20
-7.60251
 11
3.03052
 21
-7.49607
  0
LINE
  8
0
 10
3.03052
 20
-7.49607
 11
3.01529
 21
-7.38662
  0
LINE
  8
0
 10
3.01529
 20
-7.38662
 11
3.01315
 21
-7.27501
  0
LINE
  8
0
 10
3.01315
 20
-7.27501
 11
3.02402
 21
-7.16214
  0
LINE
  8
0
 10
3.02402
 20
-7.16214
 11
3.07498
 21
-7.02781
  0
LINE
  8
0
 10
3.07498
 20
-7.02781
 11
3.15468
 21
-6.90905
  0
LINE
  8
0
 10
3.15468
 20
-6.90905
 11
3.25824
 21
-6.8092
  0
LINE
  8
0
 10
3.25824
 20
-6.8092
 11
3.38071
 21
-6.73154
  0
LINE
  8
0
 10
3.38071
 20
-6.73154
 11
3.51613
 21
-6.67968
  0
LINE
  8
0
 10
3.51613
 20
-6.67968
 11
3.65806
 21
-6.65624
  0
LINE
  8
0
 10
3.65806
 20
-6.65624
 11
3.80092
 21
-6.66323
  0
LINE
  8
0
 10
3.80092
 20
-6.66323
 11
3.9391
 21
-6.70257
  0
LINE
  8
0
 10
3.9391
 20
-6.70257
 11
4.03597
 21
-6.76134
  0
LINE
  8
0
 10
4.03597
 20
-6.76134
 11
4.12424
 21
-6.82968
  0
LINE
  8
0
 10
4.12424
 20
-6.82968
 11
4.20302
 21
-6.90722
  0
LINE
  8
0
 10
4.20302
 20
-6.90722
 11
4.27145
 21
-6.99359
  0
LINE
  8
0
 10
4.27145
 20
-6.99359
 11
4.36356
 21
-7.05174
  0
LINE
  8
0
 10
4.36356
 20
-7.05174
 11
4.47419
 21
-7.03545
  0
LINE
  8
0
 10
4.47419
 20
-7.03545
 11
4.58311
 21
-6.96827
  0
LINE
  8
0
 10
4.58311
 20
-6.96827
 11
4.68792
 21
-6.89488
  0
LINE
  8
0
 10
4.68792
 20
-6.89488
 11
4.7466
 21
-6.79983
  0
LINE
  8
0
 10
4.7466
 20
-6.79983
 11
4.72979
 21
-6.69213
  0
LINE
  8
0
 10
4.72979
 20
-6.69213
 11
4.67755
 21
-6.59512
  0
LINE
  8
0
 10
4.67755
 20
-6.59512
 11
4.63748
 21
-6.49214
  0
LINE
  8
0
 10
4.63748
 20
-6.49214
 11
4.60967
 21
-6.38403
  0
LINE
  8
0
 10
4.60967
 20
-6.38403
 11
4.59421
 21
-6.2717
  0
LINE
  8
0
 10
4.59421
 20
-6.2717
 11
4.61282
 21
-6.12923
  0
LINE
  8
0
 10
4.61282
 20
-6.12923
 11
4.66298
 21
-5.9953
  0
LINE
  8
0
 10
4.66298
 20
-5.9953
 11
4.74072
 21
-5.87425
  0
LINE
  8
0
 10
4.74072
 20
-5.87425
 11
4.84198
 21
-5.77044
  0
LINE
  8
0
 10
4.84198
 20
-5.77044
 11
4.96179
 21
-5.68875
  0
LINE
  8
0
 10
4.96179
 20
-5.68875
 11
5.0945
 21
-5.63321
  0
LINE
  8
0
 10
5.0945
 20
-5.63321
 11
5.23511
 21
-5.60707
  0
LINE
  8
0
 10
5.23511
 20
-5.60707
 11
5.37864
 21
-5.61348
  0
LINE
  8
0
 10
5.37864
 20
-5.61348
 11
5.48645
 21
-5.64832
  0
LINE
  8
0
 10
5.48645
 20
-5.64832
 11
5.5881
 21
-5.69448
  0
LINE
  8
0
 10
5.5881
 20
-5.69448
 11
5.68264
 21
-5.75175
  0
LINE
  8
0
 10
5.68264
 20
-5.75175
 11
5.76915
 21
-5.82001
  0
LINE
  8
0
 10
5.76915
 20
-5.82001
 11
5.87218
 21
-5.85536
  0
LINE
  8
0
 10
5.87218
 20
-5.85536
 11
5.97608
 21
-5.81399
  0
LINE
  8
0
 10
5.97608
 20
-5.81399
 11
6.06656
 21
-5.72351
  0
LINE
  8
0
 10
6.06656
 20
-5.72351
 11
6.15163
 21
-5.62792
  0
LINE
  8
0
 10
6.15163
 20
-5.62792
 11
6.1868
 21
-5.5219
  0
LINE
  8
0
 10
6.1868
 20
-5.5219
 11
6.14561
 21
-5.42098
  0
LINE
  8
0
 10
6.14561
 20
-5.42098
 11
6.0724
 21
-5.33863
  0
LINE
  8
0
 10
6.0724
 20
-5.33863
 11
6.00967
 21
-5.24767
  0
LINE
  8
0
 10
6.00967
 20
-5.24767
 11
5.95767
 21
-5.14889
  0
LINE
  8
0
 10
5.95767
 20
-5.14889
 11
5.91672
 21
-5.04315
  0
LINE
  8
0
 10
5.91672
 20
-5.04315
 11
5.90198
 21
-4.90023
  0
LINE
  8
0
 10
5.90198
 20
-4.90023
 11
5.9199
 21
-4.75834
  0
LINE
  8
0
 10
5.9199
 20
-4.75834
 11
5.96763
 21
-4.62263
  0
LINE
  8
0
 10
5.96763
 20
-4.62263
 11
6.04222
 21
-4.49827
  0
LINE
  8
0
 10
6.04222
 20
-4.49827
 11
6.13996
 21
-4.39114
  0
LINE
  8
0
 10
6.13996
 20
-4.39114
 11
6.25628
 21
-4.3065
  0
LINE
  8
0
 10
6.25628
 20
-4.3065
 11
6.38708
 21
-4.24863
  0
LINE
  8
0
 10
6.38708
 20
-4.24863
 11
6.52822
 21
-4.22177
  0
LINE
  8
0
 10
6.52822
 20
-4.22177
 11
6.64116
 21
-4.23081
  0
LINE
  8
0
 10
6.64116
 20
-4.23081
 11
6.75071
 21
-4.25227
  0
LINE
  8
0
 10
6.75071
 20
-4.25227
 11
6.85591
 21
-4.2862
  0
LINE
  8
0
 10
6.85591
 20
-4.2862
 11
6.95582
 21
-4.33268
  0
LINE
  8
0
 10
6.95582
 20
-4.33268
 11
7.06424
 21
-4.34331
  0
LINE
  8
0
 10
7.06424
 20
-4.34331
 11
7.15579
 21
-4.2791
  0
LINE
  8
0
 10
7.15579
 20
-4.2791
 11
7.22297
 21
-4.17018
  0
LINE
  8
0
 10
7.22297
 20
-4.17018
 11
7.2837
 21
-4.05755
  0
LINE
  8
0
 10
7.2837
 20
-4.05755
 11
7.29348
 21
-3.94628
  0
LINE
  8
0
 10
7.29348
 20
-3.94628
 11
7.23012
 21
-3.85758
  0
LINE
  8
0
 10
7.23012
 20
-3.85758
 11
7.1399
 21
-3.79434
  0
LINE
  8
0
 10
7.1399
 20
-3.79434
 11
7.05787
 21
-3.72029
  0
LINE
  8
0
 10
7.05787
 20
-3.72029
 11
6.9845
 21
-3.63616
  0
LINE
  8
0
 10
6.9845
 20
-3.63616
 11
6.92027
 21
-3.54272
  0
LINE
  8
0
 10
6.92027
 20
-3.54272
 11
6.87296
 21
-3.40705
  0
LINE
  8
0
 10
6.87296
 20
-3.40705
 11
6.85768
 21
-3.26485
  0
LINE
  8
0
 10
6.85768
 20
-3.26485
 11
6.87282
 21
-3.12179
  0
LINE
  8
0
 10
6.87282
 20
-3.12179
 11
6.91672
 21
-2.98358
  0
LINE
  8
0
 10
6.91672
 20
-2.98358
 11
6.98713
 21
-2.85681
  0
LINE
  8
0
 10
6.98713
 20
-2.85681
 11
7.08079
 21
-2.74762
  0
LINE
  8
0
 10
7.08079
 20
-2.74762
 11
7.19471
 21
-2.66115
  0
LINE
  8
0
 10
7.19471
 20
-2.66115
 11
7.32585
 21
-2.60246
  0
LINE
  8
0
 10
7.32585
 20
-2.60246
 11
7.43784
 21
-2.58521
  0
LINE
  8
0
 10
7.43784
 20
-2.58521
 11
7.54939
 21
-2.58083
  0
LINE
  8
0
 10
7.54939
 20
-2.58083
 11
7.65958
 21
-2.58959
  0
LINE
  8
0
 10
7.65958
 20
-2.58959
 11
7.76751
 21
-2.61176
  0
LINE
  8
0
 10
7.76751
 20
-2.61176
 11
7.87545
 21
-2.59711
  0
LINE
  8
0
 10
7.87545
 20
-2.59711
 11
7.94973
 21
-2.51351
  0
LINE
  8
0
 10
7.94973
 20
-2.51351
 11
7.98998
 21
-2.39204
  0
LINE
  8
0
 10
7.98998
 20
-2.39204
 11
8.0231
 21
-2.26845
  0
LINE
  8
0
 10
8.0231
 20
-2.26845
 11
8.00696
 21
-2.15792
  0
LINE
  8
0
 10
8.00696
 20
-2.15792
 11
7.92485
 21
-2.08622
  0
LINE
  8
0
 10
7.92485
 20
-2.08622
 11
7.82247
 21
-2.04549
  0
LINE
  8
0
 10
7.82247
 20
-2.04549
 11
7.72558
 21
-1.99235
  0
LINE
  8
0
 10
7.72558
 20
-1.99235
 11
7.63479
 21
-1.92742
  0
LINE
  8
0
 10
7.63479
 20
-1.92742
 11
7.55074
 21
-1.8513
  0
LINE
  8
0
 10
7.55074
 20
-1.8513
 11
7.47342
 21
-1.7302
  0
LINE
  8
0
 10
7.47342
 20
-1.7302
 11
7.42575
 21
-1.59536
  0
LINE
  8
0
 10
7.42575
 20
-1.59536
 11
7.4075
 21
-1.45266
  0
LINE
  8
0
 10
7.4075
 20
-1.45266
 11
7.41834
 21
-1.30805
  0
LINE
  8
0
 10
7.41834
 20
-1.30805
 11
7.45761
 21
-1.16846
  0
LINE
  8
0
 10
7.45761
 20
-1.16846
 11
7.52357
 21
-1.04061
  0
LINE
  8
0
 10
7.52357
 20
-1.04061
 11
7.61448
 21
-0.930203
  0
LINE
  8
0
 10
7.61448
 20
-0.930203
 11
7.72855
 21
-0.842851
  0
LINE
  8
0
 10
7.72855
 20
-0.842851
 11
7.83354
 21
-0.800242
  0
LINE
  8
0
 10
7.83354
 20
-0.800242
 11
7.94107
 21
-0.770258
  0
LINE
  8
0
 10
7.94107
 20
-0.770258
 11
8.05031
 21
-0.753365
  0
LINE
  8
0
 10
8.05031
 20
-0.753365
 11
8.16045
 21
-0.750052
  0
LINE
  8
0
 10
8.16045
 20
-0.750052
 11
8.2621
 21
-0.710896
  0
LINE
  8
0
 10
8.2621
 20
-0.710896
 11
8.3151
 21
-0.612426
  0
LINE
  8
0
 10
8.3151
 20
-0.612426
 11
8.32626
 21
-0.484949
  0
LINE
  8
0
 10
8.32626
 20
-0.484949
 11
8.32998
 21
-0.357044
  0
LINE
  8
0
 10
8.32998
 20
-0.357044
 11
8.28878
 21
-0.25322
  0
LINE
  8
0
 10
8.28878
 20
-0.25322
 11
8.19235
 21
-0.20239
  0
LINE
  8
0
 10
8.19235
 20
-0.20239
 11
8.08334
 21
-0.186364
  0
LINE
  8
0
 10
8.08334
 20
-0.186364
 11
7.97681
 21
-0.157006
  0
LINE
  8
0
 10
7.97681
 20
-0.157006
 11
7.87348
 21
-0.114758
  0
LINE
  8
0
 10
7.87348
 20
-0.114758
 11
7.77414
 21
-0.0600767
  0
LINE
  8
0
 10
7.77414
 20
-0.0600767
 11
7.67099
 21
0.0399265
  0
LINE
  8
0
 10
7.67099
 20
0.0399265
 11
7.59351
 21
0.160143
  0
LINE
  8
0
 10
7.59351
 20
0.160143
 11
7.54284
 21
0.294781
  0
LINE
  8
0
 10
7.54284
 20
0.294781
 11
7.52004
 21
0.437992
  0
LINE
  8
0
 10
7.52004
 20
0.437992
 11
7.52606
 21
0.582881
  0
LINE
  8
0
 10
7.52606
 20
0.582881
 11
7.56075
 21
0.722491
  0
LINE
  8
0
 10
7.56075
 20
0.722491
 11
7.62375
 21
0.85089
  0
LINE
  8
0
 10
7.62375
 20
0.85089
 11
7.7146
 21
0.962193
  0
LINE
  8
0
 10
7.7146
 20
0.962193
 11
7.80693
 21
1.02787
  0
LINE
  8
0
 10
7.80693
 20
1.02787
 11
7.90465
 21
1.08184
  0
LINE
  8
0
 10
7.90465
 20
1.08184
 11
8.00705
 21
1.12347
  0
LINE
  8
0
 10
8.00705
 20
1.12347
 11
8.11346
 21
1.15209
  0
LINE
  8
0
 10
8.11346
 20
1.15209
 11
8.20334
 21
1.21364
  0
LINE
  8
0
 10
8.20334
 20
1.21364
 11
8.2322
 21
1.32168
  0
LINE
  8
0
 10
8.2322
 20
1.32168
 11
8.21366
 21
1.44829
  0
LINE
  8
0
 10
8.21366
 20
1.44829
 11
8.18778
 21
1.5736
  0
LINE
  8
0
 10
8.18778
 20
1.5736
 11
8.12375
 21
1.66513
  0
LINE
  8
0
 10
8.12375
 20
1.66513
 11
8.0182
 21
1.69235
  0
LINE
  8
0
 10
8.0182
 20
1.69235
 11
7.90843
 21
1.6828
  0
LINE
  8
0
 10
7.90843
 20
1.6828
 11
7.798
 21
1.6868
  0
LINE
  8
0
 10
7.798
 20
1.6868
 11
7.68772
 21
1.70408
  0
LINE
  8
0
 10
7.68772
 20
1.70408
 11
7.57845
 21
1.73438
  0
LINE
  8
0
 10
7.57845
 20
1.73438
 11
7.45501
 21
1.8079
  0
LINE
  8
0
 10
7.45501
 20
1.8079
 11
7.35189
 21
1.90701
  0
LINE
  8
0
 10
7.35189
 20
1.90701
 11
7.27154
 21
2.02633
  0
LINE
  8
0
 10
7.27154
 20
2.02633
 11
7.21633
 21
2.16043
  0
LINE
  8
0
 10
7.21633
 20
2.16043
 11
7.18877
 21
2.3028
  0
LINE
  8
0
 10
7.18877
 20
2.3028
 11
7.19033
 21
2.44665
  0
LINE
  8
0
 10
7.19033
 20
2.44665
 11
7.22202
 21
2.58611
  0
LINE
  8
0
 10
7.22202
 20
2.58611
 11
7.28476
 21
2.71537
  0
LINE
  8
0
 10
7.28476
 20
2.71537
 11
7.35945
 21
2.80056
  0
LINE
  8
0
 10
7.35945
 20
2.80056
 11
7.44209
 21
2.87562
  0
LINE
  8
0
 10
7.44209
 20
2.87562
 11
7.53213
 21
2.93974
  0
LINE
  8
0
 10
7.53213
 20
2.93974
 11
7.62907
 21
2.99213
  0
LINE
  8
0
 10
7.62907
 20
2.99213
 11
7.70234
 21
3.07275
  0
LINE
  8
0
 10
7.70234
 20
3.07275
 11
7.7055
 21
3.18453
  0
LINE
  8
0
 10
7.7055
 20
3.18453
 11
7.65826
 21
3.30345
  0
LINE
  8
0
 10
7.65826
 20
3.30345
 11
7.60418
 21
3.41942
  0
LINE
  8
0
 10
7.60418
 20
3.41942
 11
7.52077
 21
3.49371
  0
LINE
  8
0
 10
7.52077
 20
3.49371
 11
7.41179
 21
3.49586
  0
LINE
  8
0
 10
7.41179
 20
3.49586
 11
7.30718
 21
3.46125
  0
LINE
  8
0
 10
7.30718
 20
3.46125
 11
7.1988
 21
3.43968
  0
LINE
  8
0
 10
7.1988
 20
3.43968
 11
7.08751
 21
3.43106
  0
LINE
  8
0
 10
7.08751
 20
3.43106
 11
6.97419
 21
3.43534
  0
LINE
  8
0
 10
6.97419
 20
3.43534
 11
6.83712
 21
3.47841
  0
LINE
  8
0
 10
6.83712
 20
3.47841
 11
6.71393
 21
3.55107
  0
LINE
  8
0
 10
6.71393
 20
3.55107
 11
6.60823
 21
3.64865
  0
LINE
  8
0
 10
6.60823
 20
3.64865
 11
6.52358
 21
3.76639
  0
LINE
  8
0
 10
6.52358
 20
3.76639
 11
6.46393
 21
3.89857
  0
LINE
  8
0
 10
6.46393
 20
3.89857
 11
6.43228
 21
4.0389
  0
LINE
  8
0
 10
6.43228
 20
4.0389
 11
6.43096
 21
4.18192
  0
LINE
  8
0
 10
6.43096
 20
4.18192
 11
6.46219
 21
4.32216
  0
LINE
  8
0
 10
6.46219
 20
4.32216
 11
6.51523
 21
4.42228
  0
LINE
  8
0
 10
6.51523
 20
4.42228
 11
6.57833
 21
4.51437
  0
LINE
  8
0
 10
6.57833
 20
4.51437
 11
6.65115
 21
4.59753
  0
LINE
  8
0
 10
6.65115
 20
4.59753
 11
6.73339
 21
4.67087
  0
LINE
  8
0
 10
6.73339
 20
4.67087
 11
6.78609
 21
4.7662
  0
LINE
  8
0
 10
6.78609
 20
4.7662
 11
6.7634
 21
4.8757
  0
LINE
  8
0
 10
6.7634
 20
4.8757
 11
6.69
 21
4.98052
  0
LINE
  8
0
 10
6.69
 20
4.98052
 11
6.61064
 21
5.08089
  0
LINE
  8
0
 10
6.61064
 20
5.08089
 11
6.51234
 21
5.13395
  0
LINE
  8
0
 10
6.51234
 20
5.13395
 11
6.4058
 21
5.1109
  0
LINE
  8
0
 10
6.4058
 20
5.1109
 11
6.31199
 21
5.05311
  0
LINE
  8
0
 10
6.31199
 20
5.05311
 11
6.21151
 21
5.00712
  0
LINE
  8
0
 10
6.21151
 20
5.00712
 11
6.1052
 21
4.97307
  0
LINE
  8
0
 10
6.1052
 20
4.97307
 11
5.99396
 21
4.9511
  0
LINE
  8
0
 10
5.99396
 20
4.9511
 11
5.85065
 21
4.9614
  0
LINE
  8
0
 10
5.85065
 20
4.9614
 11
5.71403
 21
5.00369
  0
LINE
  8
0
 10
5.71403
 20
5.00369
 11
5.58867
 21
5.07426
  0
LINE
  8
0
 10
5.58867
 20
5.07426
 11
5.47915
 21
5.16931
  0
LINE
  8
0
 10
5.47915
 20
5.16931
 11
5.39062
 21
5.28417
  0
LINE
  8
0
 10
5.39062
 20
5.28417
 11
5.32747
 21
5.41342
  0
LINE
  8
0
 10
5.32747
 20
5.41342
 11
5.29319
 21
5.55227
  0
LINE
  8
0
 10
5.29319
 20
5.55227
 11
5.29124
 21
5.69593
  0
LINE
  8
0
 10
5.29124
 20
5.69593
 11
5.31976
 21
5.80559
  0
LINE
  8
0
 10
5.31976
 20
5.80559
 11
5.35992
 21
5.90975
  0
LINE
  8
0
 10
5.35992
 20
5.90975
 11
5.4116
 21
6.00746
  0
LINE
  8
0
 10
5.4116
 20
6.00746
 11
5.47472
 21
6.09779
  0
LINE
  8
0
 10
5.47472
 20
6.09779
 11
5.50401
 21
6.20271
  0
LINE
  8
0
 10
5.50401
 20
6.20271
 11
5.45668
 21
6.30402
  0
LINE
  8
0
 10
5.45668
 20
6.30402
 11
5.36108
 21
6.38909
  0
LINE
  8
0
 10
5.36108
 20
6.38909
 11
5.26071
 21
6.46846
  0
LINE
  8
0
 10
5.26071
 20
6.46846
 11
5.15283
 21
6.49741
  0
LINE
  8
0
 10
5.15283
 20
6.49741
 11
5.05447
 21
6.45042
  0
LINE
  8
0
 10
5.05447
 20
6.45042
 11
4.97652
 21
6.37255
  0
LINE
  8
0
 10
4.97652
 20
6.37255
 11
4.88936
 21
6.30462
  0
LINE
  8
0
 10
4.88936
 20
6.30462
 11
4.79377
 21
6.24697
  0
LINE
  8
0
 10
4.79377
 20
6.24697
 11
4.69059
 21
6.19994
  0
LINE
  8
0
 10
4.69059
 20
6.19994
 11
4.54877
 21
6.17692
  0
LINE
  8
0
 10
4.54877
 20
6.17692
 11
4.40607
 21
6.18656
  0
LINE
  8
0
 10
4.40607
 20
6.18656
 11
4.26782
 21
6.22632
  0
LINE
  8
0
 10
4.26782
 20
6.22632
 11
4.13933
 21
6.29355
  0
LINE
  8
0
 10
4.13933
 20
6.29355
 11
4.02671
 21
6.3849
  0
LINE
  8
0
 10
4.02671
 20
6.3849
 11
3.93544
 21
6.4961
  0
LINE
  8
0
 10
3.93544
 20
6.4961
 11
3.87007
 21
6.62331
  0
LINE
  8
0
 10
3.87007
 20
6.62331
 11
3.83504
 21
6.76264
  0
LINE
  8
0
 10
3.83504
 20
6.76264
 11
3.8375
 21
6.87592
  0
LINE
  8
0
 10
3.8375
 20
6.87592
 11
3.85256
 21
6.98654
  0
LINE
  8
0
 10
3.85256
 20
6.98654
 11
3.88032
 21
7.09353
  0
LINE
  8
0
 10
3.88032
 20
7.09353
 11
3.9209
 21
7.19598
  0
LINE
  8
0
 10
3.9209
 20
7.19598
 11
3.92521
 21
7.30483
  0
LINE
  8
0
 10
3.92521
 20
7.30483
 11
3.85578
 21
7.39249
  0
LINE
  8
0
 10
3.85578
 20
7.39249
 11
3.74315
 21
7.45322
  0
LINE
  8
0
 10
3.74315
 20
7.45322
 11
3.62718
 21
7.5073
  0
LINE
  8
0
 10
3.62718
 20
7.5073
 11
3.51553
 21
7.51059
  0
LINE
  8
0
 10
3.51553
 20
7.51059
 11
3.43066
 21
7.44219
  0
LINE
  8
0
 10
3.43066
 20
7.44219
 11
3.37277
 21
7.34844
  0
LINE
  8
0
 10
3.37277
 20
7.34844
 11
3.30362
 21
7.26225
  0
LINE
  8
0
 10
3.30362
 20
7.26225
 11
3.2239
 21
7.18411
  0
LINE
  8
0
 10
3.2239
 20
7.18411
 11
3.13435
 21
7.11455
  0
LINE
  8
0
 10
3.13435
 20
7.11455
 11
3.00166
 21
7.05944
  0
LINE
  8
0
 10
3.00166
 20
7.05944
 11
2.86059
 21
7.03591
  0
LINE
  8
0
 10
2.86059
 20
7.03591
 11
2.71689
 21
7.04271
  0
LINE
  8
0
 10
2.71689
 20
7.04271
 11
2.57636
 21
7.0785
  0
LINE
  8
0
 10
2.57636
 20
7.0785
 11
2.44571
 21
7.14141
  0
LINE
  8
0
 10
2.44571
 20
7.14141
 11
2.33126
 21
7.22857
  0
LINE
  8
0
 10
2.33126
 20
7.22857
 11
2.23831
 21
7.33727
  0
LINE
  8
0
 10
2.23831
 20
7.33727
 11
2.1721
 21
7.46478
  0
LINE
  8
0
 10
2.1721
 20
7.46478
 11
2.14837
 21
7.57557
  0
LINE
  8
0
 10
2.14837
 20
7.57557
 11
2.13751
 21
7.68668
  0
LINE
  8
0
 10
2.13751
 20
7.68668
 11
2.13984
 21
7.79719
  0
LINE
  8
0
 10
2.13984
 20
7.79719
 11
2.15571
 21
7.90623
  0
LINE
  8
0
 10
2.15571
 20
7.90623
 11
2.1348
 21
8.01314
  0
LINE
  8
0
 10
2.1348
 20
8.01314
 11
2.04702
 21
8.08243
  0
LINE
  8
0
 10
2.04702
 20
8.08243
 11
1.92342
 21
8.11555
  0
LINE
  8
0
 10
1.92342
 20
8.11555
 11
1.79811
 21
8.14143
  0
LINE
  8
0
 10
1.79811
 20
8.14143
 11
1.6887
 21
8.11888
  0
LINE
  8
0
 10
1.6887
 20
8.11888
 11
1.6219
 21
8.03275
  0
LINE
  8
0
 10
1.6219
 20
8.03275
 11
1.58719
 21
7.92817
  0
LINE
  8
0
 10
1.58719
 20
7.92817
 11
1.53978
 21
7.82836
  0
LINE
  8
0
 10
1.53978
 20
7.82836
 11
1.48023
 21
7.73394
  0
LINE
  8
0
 10
1.48023
 20
7.73394
 11
1.40913
 21
7.6456
  0
LINE
  8
0
 10
1.40913
 20
7.6456
 11
1.29273
 21
7.56138
  0
LINE
  8
0
 10
1.29273
 20
7.56138
 11
1.16089
 21
7.50595
  0
LINE
  8
0
 10
1.16089
 20
7.50595
 11
1.0195
 21
7.47943
  0
LINE
  8
0
 10
1.0195
 20
7.47943
 11
0.874502
 21
7.48185
  0
LINE
  8
0
 10
0.874502
 20
7.48185
 11
0.73286
 21
7.51294
  0
LINE
  8
0
 10
0.73286
 20
7.51294
 11
0.601396
 21
7.57135
  0
LINE
  8
0
 10
0.601396
 20
7.57135
 11
0.485887
 21
7.65569
  0
LINE
  8
0
 10
0.485887
 20
7.65569
 11
0.39205
 21
7.76448
  0
LINE
  8
0
 10
0.39205
 20
7.76448
 11
0.34341
 21
7.86682
  0
LINE
  8
0
 10
0.34341
 20
7.86682
 11
0.307223
 21
7.97242
  0
LINE
  8
0
 10
0.307223
 20
7.97242
 11
0.284006
 21
8.08049
  0
LINE
  8
0
 10
0.284006
 20
8.08049
 11
0.274295
 21
8.19026
  0
LINE
  8
0
 10
0.274295
 20
8.19026
 11
0.229295
 21
8.28946
  0
LINE
  8
0
 10
0.229295
 20
8.28946
 11
0.127909
 21
8.33664
  0
LINE
  8
0
 10
0.127909
 20
8.33664
 11
0
 21
8.34037
  0
LINE
  8
0
 10
0
 20
8.34037
 11
-0.127903
 21
8.33664
  0
LINE
  8
0
 10
-0.127903
 20
8.33664
 11
-0.229157
 21
8.28948
  0
LINE
  8
0
 10
-0.229157
 20
8.28948
 11
-0.274295
 21
8.19026
  0
LINE
  8
0
 10
-0.274295
 20
8.19026
 11
-0.283955
 21
8.0805
  0
LINE
  8
0
 10
-0.283955
 20
8.0805
 11
-0.307068
 21
7.97244
  0
LINE
  8
0
 10
-0.307068
 20
7.97244
 11
-0.343237
 21
7.86684
  0
LINE
  8
0
 10
-0.343237
 20
7.86684
 11
-0.39205
 21
7.76448
  0
LINE
  8
0
 10
-0.39205
 20
7.76448
 11
-0.485887
 21
7.65569
  0
LINE
  8
0
 10
-0.485887
 20
7.65569
 11
-0.601396
 21
7.57135
  0
LINE
  8
0
 10
-0.601396
 20
7.57135
 11
-0.73286
 21
7.51294
  0
LINE
  8
0
 10
-0.73286
 20
7.51294
 11
-0.874502
 21
7.48185
  0
LINE
  8
0
 10
-0.874502
 20
7.48185
 11
-1.0195
 21
7.47943
  0
LINE
  8
0
 10
-1.0195
 20
7.47943
 11
-1.16089
 21
7.50595
  0
LINE
  8
0
 10
-1.16089
 20
7.50595
 11
-1.29273
 21
7.56138
  0
LINE
  8
0
 10
-1.29273
 20
7.56138
 11
-1.40913
 21
7.6456
  0
LINE
  8
0
 10
-1.40913
 20
7.6456
 11
-1.48006
 21
7.73396
  0
LINE
  8
0
 10
-1.48006
 20
7.73396
 11
-1.53963
 21
7.82838
  0
LINE
  8
0
 10
-1.53963
 20
7.82838
 11
-1.58714
 21
7.92818
  0
LINE
  8
0
 10
-1.58714
 20
7.92818
 11
-1.6219
 21
8.03275
  0
LINE
  8
0
 10
-1.6219
 20
8.03275
 11
-1.68857
 21
8.1189
  0
LINE
  8
0
 10
-1.68857
 20
8.1189
 11
-1.7981
 21
8.14143
  0
LINE
  8
0
 10
-1.7981
 20
8.14143
 11
-1.92342
 21
8.11555
  0
LINE
  8
0
 10
-1.92342
 20
8.11555
 11
-2.04702
 21
8.08243
  0
LINE
  8
0
 10
-2.04702
 20
8.08243
 11
-2.13467
 21
8.01319
  0
LINE
  8
0
 10
-2.13467
 20
8.01319
 11
-2.15571
 21
7.90623
  0
LINE
  8
0
 10
-2.15571
 20
7.90623
 11
-2.13979
 21
7.7972
  0
LINE
  8
0
 10
-2.13979
 20
7.7972
 11
-2.13736
 21
7.68673
  0
LINE
  8
0
 10
-2.13736
 20
7.68673
 11
-2.1482
 21
7.57563
  0
LINE
  8
0
 10
-2.1482
 20
7.57563
 11
-2.1721
 21
7.46478
  0
LINE
  8
0
 10
-2.1721
 20
7.46478
 11
-2.23831
 21
7.33727
  0
LINE
  8
0
 10
-2.23831
 20
7.33727
 11
-2.33126
 21
7.22857
  0
LINE
  8
0
 10
-2.33126
 20
7.22857
 11
-2.44571
 21
7.14141
  0
LINE
  8
0
 10
-2.44571
 20
7.14141
 11
-2.57636
 21
7.0785
  0
LINE
  8
0
 10
-2.57636
 20
7.0785
 11
-2.71689
 21
7.04271
  0
LINE
  8
0
 10
-2.71689
 20
7.04271
 11
-2.86059
 21
7.03591
  0
LINE
  8
0
 10
-2.86059
 20
7.03591
 11
-3.00166
 21
7.05944
  0
LINE
  8
0
 10
-3.00166
 20
7.05944
 11
-3.13435
 21
7.11455
  0
LINE
  8
0
 10
-3.13435
 20
7.11455
 11
-3.22374
 21
7.18417
  0
LINE
  8
0
 10
-3.22374
 20
7.18417
 11
-3.30347
 21
7.2623
  0
LINE
  8
0
 10
-3.30347
 20
7.2623
 11
-3.37272
 21
7.34846
  0
LINE
  8
0
 10
-3.37272
 20
7.34846
 11
-3.43066
 21
7.44219
  0
LINE
  8
0
 10
-3.43066
 20
7.44219
 11
-3.5154
 21
7.51064
  0
LINE
  8
0
 10
-3.5154
 20
7.51064
 11
-3.62717
 21
7.5073
  0
LINE
  8
0
 10
-3.62717
 20
7.5073
 11
-3.74315
 21
7.45322
  0
LINE
  8
0
 10
-3.74315
 20
7.45322
 11
-3.85578
 21
7.39249
  0
LINE
  8
0
 10
-3.85578
 20
7.39249
 11
-3.92509
 21
7.3049
  0
LINE
  8
0
 10
-3.92509
 20
7.3049
 11
-3.9209
 21
7.19598
  0
LINE
  8
0
 10
-3.9209
 20
7.19598
 11
-3.88027
 21
7.09356
  0
LINE
  8
0
 10
-3.88027
 20
7.09356
 11
-3.85243
 21
6.98662
  0
LINE
  8
0
 10
-3.85243
 20
6.98662
 11
-3.83736
 21
6.87602
  0
LINE
  8
0
 10
-3.83736
 20
6.87602
 11
-3.83504
 21
6.76264
  0
LINE
  8
0
 10
-3.83504
 20
6.76264
 11
-3.87007
 21
6.62331
  0
LINE
  8
0
 10
-3.87007
 20
6.62331
 11
-3.93544
 21
6.4961
  0
LINE
  8
0
 10
-3.93544
 20
6.4961
 11
-4.02671
 21
6.3849
  0
LINE
  8
0
 10
-4.02671
 20
6.3849
 11
-4.13933
 21
6.29355
  0
LINE
  8
0
 10
-4.13933
 20
6.29355
 11
-4.26782
 21
6.22632
  0
LINE
  8
0
 10
-4.26782
 20
6.22632
 11
-4.40607
 21
6.18656
  0
LINE
  8
0
 10
-4.40607
 20
6.18656
 11
-4.54877
 21
6.17692
  0
LINE
  8
0
 10
-4.54877
 20
6.17692
 11
-4.69059
 21
6.19994
  0
LINE
  8
0
 10
-4.69059
 20
6.19994
 11
-4.79362
 21
6.24707
  0
LINE
  8
0
 10
-4.79362
 20
6.24707
 11
-4.88923
 21
6.30471
  0
LINE
  8
0
 10
-4.88923
 20
6.30471
 11
-4.97648
 21
6.37257
  0
LINE
  8
0
 10
-4.97648
 20
6.37257
 11
-5.05447
 21
6.45042
  0
LINE
  8
0
 10
-5.05447
 20
6.45042
 11
-5.15271
 21
6.49748
  0
LINE
  8
0
 10
-5.15271
 20
6.49748
 11
-5.26071
 21
6.46846
  0
LINE
  8
0
 10
-5.26071
 20
6.46846
 11
-5.36108
 21
6.38909
  0
LINE
  8
0
 10
-5.36108
 20
6.38909
 11
-5.45667
 21
6.30403
  0
LINE
  8
0
 10
-5.45667
 20
6.30403
 11
-5.50392
 21
6.20281
  0
LINE
  8
0
 10
-5.50392
 20
6.20281
 11
-5.47472
 21
6.09779
  0
LINE
  8
0
 10
-5.47472
 20
6.09779
 11
-5.41157
 21
6.0075
  0
LINE
  8
0
 10
-5.41157
 20
6.0075
 11
-5.35981
 21
5.90986
  0
LINE
  8
0
 10
-5.35981
 20
5.90986
 11
-5.31964
 21
5.80572
  0
LINE
  8
0
 10
-5.31964
 20
5.80572
 11
-5.29124
 21
5.69593
  0
LINE
  8
0
 10
-5.29124
 20
5.69593
 11
-5.29319
 21
5.55227
  0
LINE
  8
0
 10
-5.29319
 20
5.55227
 11
-5.32747
 21
5.41342
  0
LINE
  8
0
 10
-5.32747
 20
5.41342
 11
-5.39062
 21
5.28417
  0
LINE
  8
0
 10
-5.39062
 20
5.28417
 11
-5.47915
 21
5.16931
  0
LINE
  8
0
 10
-5.47915
 20
5.16931
 11
-5.58867
 21
5.07426
  0
LINE
  8
0
 10
-5.58867
 20
5.07426
 11
-5.71403
 21
5.00369
  0
LINE
  8
0
 10
-5.71403
 20
5.00369
 11
-5.85065
 21
4.9614
  0
LINE
  8
0
 10
-5.85065
 20
4.9614
 11
-5.99396
 21
4.9511
  0
LINE
  8
0
 10
-5.99396
 20
4.9511
 11
-6.10509
 21
4.97319
  0
LINE
  8
0
 10
-6.10509
 20
4.97319
 11
-6.2114
 21
5.00723
  0
LINE
  8
0
 10
-6.2114
 20
5.00723
 11
-6.31196
 21
5.05314
  0
LINE
  8
0
 10
-6.31196
 20
5.05314
 11
-6.4058
 21
5.1109
  0
LINE
  8
0
 10
-6.4058
 20
5.1109
 11
-6.51224
 21
5.13405
  0
LINE
  8
0
 10
-6.51224
 20
5.13405
 11
-6.61063
 21
5.0809
  0
LINE
  8
0
 10
-6.61063
 20
5.0809
 11
-6.69
 21
4.98052
  0
LINE
  8
0
 10
-6.69
 20
4.98052
 11
-6.76339
 21
4.8757
  0
LINE
  8
0
 10
-6.76339
 20
4.8757
 11
-6.78603
 21
4.76632
  0
LINE
  8
0
 10
-6.78603
 20
4.76632
 11
-6.73339
 21
4.67087
  0
LINE
  8
0
 10
-6.73339
 20
4.67087
 11
-6.65112
 21
4.59757
  0
LINE
  8
0
 10
-6.65112
 20
4.59757
 11
-6.57825
 21
4.51451
  0
LINE
  8
0
 10
-6.57825
 20
4.51451
 11
-6.51514
 21
4.42243
  0
LINE
  8
0
 10
-6.51514
 20
4.42243
 11
-6.46219
 21
4.32216
  0
LINE
  8
0
 10
-6.46219
 20
4.32216
 11
-6.43096
 21
4.18192
  0
LINE
  8
0
 10
-6.43096
 20
4.18192
 11
-6.43228
 21
4.0389
  0
LINE
  8
0
 10
-6.43228
 20
4.0389
 11
-6.46393
 21
3.89857
  0
LINE
  8
0
 10
-6.46393
 20
3.89857
 11
-6.52358
 21
3.76639
  0
LINE
  8
0
 10
-6.52358
 20
3.76639
 11
-6.60823
 21
3.64865
  0
LINE
  8
0
 10
-6.60823
 20
3.64865
 11
-6.71393
 21
3.55107
  0
LINE
  8
0
 10
-6.71393
 20
3.55107
 11
-6.83712
 21
3.47841
  0
LINE
  8
0
 10
-6.83712
 20
3.47841
 11
-6.97419
 21
3.43534
  0
LINE
  8
0
 10
-6.97419
 20
3.43534
 11
-7.08742
 21
3.43121
  0
LINE
  8
0
 10
-7.08742
 20
3.43121
 11
-7.19872
 21
3.43981
  0
LINE
  8
0
 10
-7.19872
 20
3.43981
 11
-7.30715
 21
3.4613
  0
LINE
  8
0
 10
-7.30715
 20
3.4613
 11
-7.41179
 21
3.49586
  0
LINE
  8
0
 10
-7.41179
 20
3.49586
 11
-7.5207
 21
3.49383
  0
LINE
  8
0
 10
-7.5207
 20
3.49383
 11
-7.60418
 21
3.41943
  0
LINE
  8
0
 10
-7.60418
 20
3.41943
 11
-7.65826
 21
3.30345
  0
LINE
  8
0
 10
-7.65826
 20
3.30345
 11
-7.7055
 21
3.18453
  0
LINE
  8
0
 10
-7.7055
 20
3.18453
 11
-7.7023
 21
3.07288
  0
LINE
  8
0
 10
-7.7023
 20
3.07288
 11
-7.62907
 21
2.99213
  0
LINE
  8
0
 10
-7.62907
 20
2.99213
 11
-7.53211
 21
2.93979
  0
LINE
  8
0
 10
-7.53211
 20
2.93979
 11
-7.44205
 21
2.87577
  0
LINE
  8
0
 10
-7.44205
 20
2.87577
 11
-7.3594
 21
2.80073
  0
LINE
  8
0
 10
-7.3594
 20
2.80073
 11
-7.28476
 21
2.71537
  0
LINE
  8
0
 10
-7.28476
 20
2.71537
 11
-7.22202
 21
2.58611
  0
LINE
  8
0
 10
-7.22202
 20
2.58611
 11
-7.19033
 21
2.44665
  0
LINE
  8
0
 10
-7.19033
 20
2.44665
 11
-7.18877
 21
2.3028
  0
LINE
  8
0
 10
-7.18877
 20
2.3028
 11
-7.21633
 21
2.16043
  0
LINE
  8
0
 10
-7.21633
 20
2.16043
 11
-7.27154
 21
2.02633
  0
LINE
  8
0
 10
-7.27154
 20
2.02633
 11
-7.35189
 21
1.90701
  0
LINE
  8
0
 10
-7.35189
 20
1.90701
 11
-7.45501
 21
1.8079
  0
LINE
  8
0
 10
-7.45501
 20
1.8079
 11
-7.57845
 21
1.73438
  0
LINE
  8
0
 10
-7.57845
 20
1.73438
 11
-7.68767
 21
1.70425
  0
LINE
  8
0
 10
-7.68767
 20
1.70425
 11
-7.79796
 21
1.68695
  0
LINE
  8
0
 10
-7.79796
 20
1.68695
 11
-7.90842
 21
1.68285
  0
LINE
  8
0
 10
-7.90842
 20
1.68285
 11
-8.0182
 21
1.69235
  0
LINE
  8
0
 10
-8.0182
 20
1.69235
 11
-8.12371
 21
1.66526
  0
LINE
  8
0
 10
-8.12371
 20
1.66526
 11
-8.18778
 21
1.57361
  0
LINE
  8
0
 10
-8.18778
 20
1.57361
 11
-8.21366
 21
1.44829
  0
LINE
  8
0
 10
-8.21366
 20
1.44829
 11
-8.2322
 21
1.32168
  0
LINE
  8
0
 10
-8.2322
 20
1.32168
 11
-8.20333
 21
1.21378
  0
LINE
  8
0
 10
-8.20333
 20
1.21378
 11
-8.11346
 21
1.15209
  0
LINE
  8
0
 10
-8.11346
 20
1.15209
 11
-8.00705
 21
1.12352
  0
LINE
  8
0
 10
-8.00705
 20
1.12352
 11
-7.90464
 21
1.082
  0
LINE
  8
0
 10
-7.90464
 20
1.082
 11
-7.80692
 21
1.02804
  0
LINE
  8
0
 10
-7.80692
 20
1.02804
 11
-7.7146
 21
0.962193
  0
LINE
  8
0
 10
-7.7146
 20
0.962193
 11
-7.62375
 21
0.85089
  0
LINE
  8
0
 10
-7.62375
 20
0.85089
 11
-7.56075
 21
0.722491
  0
LINE
  8
0
 10
-7.56075
 20
0.722491
 11
-7.52606
 21
0.582881
  0
LINE
  8
0
 10
-7.52606
 20
0.582881
 11
-7.52004
 21
0.437992
  0
LINE
  8
0
 10
-7.52004
 20
0.437992
 11
-7.54284
 21
0.294781
  0
LINE
  8
0
 10
-7.54284
 20
0.294781
 11
-7.59351
 21
0.160143
  0
LINE
  8
0
 10
-7.59351
 20
0.160143
 11
-7.67099
 21
0.0399265
  0
LINE
  8
0
 10
-7.67099
 20
0.0399265
 11
-7.77414
 21
-0.0600767
  0
LINE
  8
0
 10
-7.77414
 20
-0.0600767
 11
-7.87347
 21
-0.114586
  0
LINE
  8
0
 10
-7.87347
 20
-0.114586
 11
-7.9768
 21
-0.156851
  0
LINE
  8
0
 10
-7.9768
 20
-0.156851
 11
-8.08334
 21
-0.186313
  0
LINE
  8
0
 10
-8.08334
 20
-0.186313
 11
-8.19235
 21
-0.20239
  0
LINE
  8
0
 10
-8.19235
 20
-0.20239
 11
-8.28877
 21
-0.253081
  0
LINE
  8
0
 10
-8.28877
 20
-0.253081
 11
-8.32998
 21
-0.357038
  0
ENDSEC
  0
SECTION
  2
OBJECTS
  0
DICTIONARY
  0
ENDSEC
  0
EOF
